<?xml version="1.0" encoding="utf-8"?>
<!-- Generator: Adobe Illustrator 24.0.0, SVG Export Plug-In . SVG Version: 6.00 Build 0)  -->
<svg version="1.1" id="Calque_1" xmlns="http://www.w3.org/2000/svg" xmlns:xlink="http://www.w3.org/1999/xlink" x="0px" y="0px"
	 viewBox="0 0 566.9 566.9" enable-background="new 0 0 566.9 566.9" xml:space="preserve">
<path fill="#F07F3C" d="M566.9,489.9c0,42.5-34.8,77-77.7,77H77.6c-42.9,0-77.6-34.5-77.6-77v-413C0,34.4,34.8,0,77.6,0h411.6
	c42.9,0,77.7,34.4,77.7,76.9V489.9z"/>
<g>
	<path fill="#FFFFFF" d="M70.7,390.9v-35.3l80.9-93.3c7.9-9.4,11.3-16,11.3-26c0-16-9.4-26.9-26.2-26.9c-13.1,0-26.5,6.6-26.5,27.5
		H70.7c0-39.2,28.9-62.8,66-62.8c38.3,0,65.7,23.8,65.7,62.5c0,20.8-8.2,32-23.1,49.2l-60.5,69.7h83.7v35.3H70.7z"/>
	<path fill="#FFFFFF" d="M281.2,390.9V218.3l-44.1,38V214l44.1-38h39.5v214.9H281.2z"/>
	<path fill="#FFFFFF" d="M415.4,392.7c-23.4,0-39.5-6-55.7-22l28-27.5c7,6.9,13.7,12.1,27.7,12.1c20.7,0,34.1-12.1,34.1-36.8V176
		h42.3v144.3C491.7,367.7,455.5,392.7,415.4,392.7z"/>
</g>
</svg>
