<?xml version="1.0" encoding="utf-8"?>
<!-- Generator: Adobe Illustrator 24.0.0, SVG Export Plug-In . SVG Version: 6.00 Build 0)  -->
<svg version="1.1" id="Calque_1" xmlns="http://www.w3.org/2000/svg" xmlns:xlink="http://www.w3.org/1999/xlink" x="0px" y="0px"
	 viewBox="0 0 566.9 566.9" enable-background="new 0 0 566.9 566.9" xml:space="preserve">
<path fill="#E5006B" d="M566.9,489.9c0,42.5-34.8,77-77.7,77H77.6c-42.9,0-77.6-34.5-77.6-77v-413C0,34.4,34.8,0,77.6,0h411.6
	c42.9,0,77.7,34.4,77.7,76.9V489.9z"/>
<g>
	<path fill="#FFFFFF" d="M197.2,422.5H79.9V144.4h112.6c54.7,0,86.6,30.5,86.6,78.1c0,30.9-20.5,50.8-34.7,57.4
		c16.9,7.8,38.6,25.4,38.6,62.5C283.1,394.4,247.2,422.5,197.2,422.5z M188.2,192.8h-53.6v64.1h53.6c23.2,0,36.2-12.9,36.2-32
		C224.4,205.7,211.4,192.8,188.2,192.8z M191.7,305.7h-57.1v68.4h57.1c24.8,0,36.6-15.6,36.6-34.4
		C228.3,321,216.5,305.7,191.7,305.7z"/>
	<path fill="#FFFFFF" d="M403.6,422.5V199.1l-57.1,49.2v-54.7l57.1-49.2h51.2v278.1H403.6z"/>
</g>
</svg>
